<svg width="333" height="95" viewBox="0 0 333 95" fill="none" xmlns="http://www.w3.org/2000/svg">
<path d="M17.1992 0.625355C10.3909 3.47522 2.9063 11.5265 0.542413 21.6325C-2.45126 34.4372 10.0068 39.852 11.0286 38.0765C12.2313 35.9904 8.7963 35.2849 8.08923 28.6412C7.17539 20.0604 11.1646 10.4722 16.1852 6.26516C17.1185 5.48354 17.0741 6.57142 17.0741 8.58368C17.0741 12.1821 16.8752 44.4851 16.8752 51.2267C16.8752 60.3491 16.4985 63.2297 15.8218 66.0762C15.1361 68.9608 14.0338 70.9099 14.8691 71.6607C15.8023 72.5005 19.7867 70.5029 22.0933 67.2835C24.8593 63.4224 25.8275 58.7854 26.0014 53.7498C26.2113 47.6794 26.2024 38.0471 26.2113 32.5528C26.2197 27.5138 26.2962 12.7584 26.123 3.888C26.0806 1.71227 20.0465 -0.570385 17.1989 0.622709L17.1992 0.625355ZM258.962 43.3171C258.743 48.0596 257.693 51.7665 256.39 54.3812C253.868 59.443 248.634 61.0148 246.412 53.7382C245.201 49.7717 245.144 43.1473 246.015 37.6122C246.901 31.9735 249.376 27.715 253.474 28.099C257.516 28.4787 259.408 33.6868 258.962 43.3169V43.3171ZM190.823 72.7406C190.769 80.6205 189.528 87.5296 186.869 89.5362C183.097 92.3816 178.027 90.2473 179.077 84.4972C180.006 79.409 184.399 74.2125 190.834 67.8634C190.834 67.8634 190.848 69.3113 190.824 72.7406H190.823ZM189.793 43.2712C189.563 47.5907 188.443 51.93 187.221 54.3817C184.699 59.4435 179.427 61.026 177.243 53.7388C175.749 48.7598 176.107 42.3158 176.846 38.2555C177.805 32.9874 180.13 28.1002 184.305 28.1002C188.364 28.1002 190.365 32.5535 189.793 43.2716V43.2712ZM150.32 43.2052C150.073 47.7799 149.18 51.6041 147.748 54.3817C145.157 59.4087 140.031 61.003 137.77 53.7388C136.14 48.5007 136.695 41.3584 137.373 37.5002C138.379 31.7747 140.898 27.7155 144.832 28.1002C148.872 28.4949 150.836 33.6873 150.32 43.2055V43.2052ZM331.216 48.5487C330.228 48.5487 329.778 49.5667 329.405 51.2803C328.111 57.2387 326.752 58.5841 324.999 58.5841C323.04 58.5841 321.281 55.6338 320.828 49.7277C320.473 45.0837 320.53 36.5339 320.984 28.0291C321.077 26.2817 320.595 24.5528 315.908 22.8501C313.892 22.1178 310.96 21.0394 309.5 24.5628C305.376 34.5171 303.763 42.42 303.383 45.6305C303.363 45.7966 303.16 45.8305 303.124 45.4423C302.882 42.871 302.341 38.1984 302.274 28.3813C302.261 26.4659 301.855 24.8355 299.741 23.5007C298.369 22.6346 294.204 21.1027 292.704 22.9251C291.404 24.4156 289.899 28.4266 288.335 33.1812C287.064 37.0456 286.179 39.6598 286.179 39.6598C286.179 39.6598 286.196 29.2329 286.211 25.2778C286.218 23.7857 285.194 23.2885 284.886 23.1984C283.497 22.7952 280.76 22.1217 279.598 22.1217C278.165 22.1217 277.814 22.9229 277.814 24.0903C277.814 24.2431 277.588 37.8183 277.588 47.3107C277.588 47.723 277.588 48.1728 277.592 48.6507C276.799 53.0135 274.228 58.9359 271.432 58.9359C268.633 58.9359 267.312 56.4599 267.312 45.1436C267.312 38.5419 267.51 35.6713 267.607 30.8966C267.664 28.1464 267.773 26.0344 267.767 25.5552C267.746 24.0855 265.205 23.3447 264.022 23.071C262.834 22.7949 261.802 22.688 260.996 22.7339C259.855 22.7982 259.047 23.5469 259.047 24.5765C259.047 25.1285 259.053 26.1783 259.053 26.1783C257.584 23.8688 255.22 22.2613 253.647 21.7955C249.411 20.5374 244.991 21.6522 241.657 26.3178C239.007 30.0248 237.409 34.2234 236.78 40.2557C236.321 44.6658 236.471 49.1378 237.288 52.9199C236.301 57.1875 234.468 58.9359 232.461 58.9359C229.548 58.9359 227.436 54.181 227.682 45.9576C227.843 40.5488 228.926 36.753 230.109 31.2616C230.613 28.9207 230.203 27.6951 229.175 26.5204C228.233 25.4432 226.224 24.8928 223.336 25.5697C221.279 26.0524 218.338 26.5714 215.647 26.97C215.647 26.97 215.809 26.3222 215.942 25.1801C216.642 19.1903 210.134 19.6763 208.057 21.5894C206.817 22.7316 205.974 24.0787 205.653 26.5008C205.145 30.3445 208.28 32.1574 208.28 32.1574C207.252 36.8656 204.731 43.016 202.128 47.4626C200.733 49.845 199.667 51.6104 198.29 53.4871C198.285 52.7883 198.281 52.0896 198.279 51.394C198.247 41.4957 198.379 33.7054 198.437 30.8975C198.494 28.1473 198.604 26.0914 198.598 25.6121C198.582 24.5371 197.955 24.1312 196.649 23.6172C195.494 23.1626 194.129 22.8479 192.713 22.7382C190.926 22.5988 189.85 23.5467 189.878 24.6676C189.883 24.8792 189.883 26.1787 189.883 26.1787C188.413 23.8692 186.049 22.2617 184.477 21.7959C180.241 20.5384 175.82 21.6531 172.486 26.3181C169.837 30.0252 168.102 35.2271 167.61 40.2102C167.152 44.8544 167.236 48.8012 167.861 52.1258C167.187 55.455 165.251 58.9363 163.061 58.9363C160.261 58.9363 158.668 56.4603 158.668 45.144C158.668 38.5423 158.867 35.6717 158.964 30.8975C159.021 28.1473 159.13 26.0348 159.124 25.5561C159.103 24.0864 156.562 23.3457 155.379 23.0713C154.142 22.7852 153.073 22.68 152.253 22.7404C151.171 22.8211 150.41 23.7902 150.41 24.5131V26.1787C148.94 23.8692 146.576 22.2617 145.004 21.7959C140.768 20.5384 136.372 21.6711 133.013 26.3181C130.823 29.3483 129.05 32.7076 128.137 40.1441C127.873 42.2931 127.757 44.3055 127.772 46.1865C126.898 51.528 123.041 57.6844 119.885 57.6844C118.039 57.6844 116.28 54.1029 116.28 46.4698C116.28 36.3021 116.909 21.8256 117.016 20.4303C117.016 20.4303 121.003 20.3626 121.775 20.3536C123.764 20.3318 125.565 20.3788 128.214 20.2433C129.542 20.1756 130.822 15.4075 129.451 14.8174C128.83 14.5503 124.437 14.3163 122.696 14.2793C121.232 14.2462 117.156 13.9445 117.156 13.9445C117.156 13.9445 117.521 4.33563 117.606 3.32058C117.679 2.47457 116.584 2.03899 115.956 1.77469C114.43 1.12915 113.065 0.820066 111.446 0.486376C109.21 0.0250484 108.195 0.476298 107.997 2.36369C107.699 5.22814 107.544 13.6181 107.544 13.6181C105.903 13.6181 100.297 13.2973 98.6558 13.2973C97.1307 13.2973 95.4846 19.8564 97.5932 19.937C100.019 20.0311 104.247 20.1123 107.05 20.1969C107.05 20.1969 106.925 34.9119 106.925 39.4549C106.925 39.9382 106.929 40.4037 106.93 40.8553C105.387 48.8954 99.9542 53.2384 99.9542 53.2384C101.121 47.9195 98.7376 43.9252 94.4443 40.544C92.8626 39.298 89.7401 36.9392 86.2464 34.3544C86.2464 34.3544 88.2698 32.3601 90.0643 28.3479C91.3358 25.5059 91.3907 22.2534 88.2698 21.5362C83.1132 20.3504 78.8614 24.1375 77.5932 28.1805C76.6106 31.3125 77.1347 33.6366 79.0596 36.0508C79.2001 36.2272 79.3524 36.4075 79.5098 36.5889C78.3457 38.8325 76.7467 41.8531 75.3923 44.1956C71.6332 50.6993 68.7934 55.8436 66.6473 55.8436C64.9318 55.8436 64.9548 50.6208 64.9548 45.7308C64.9548 41.5153 65.2661 35.1774 65.5147 28.6155C65.597 26.4454 64.5119 25.2091 62.6928 24.0893C61.5876 23.409 59.2288 22.0715 57.8626 22.0715C55.8178 22.0715 49.9183 22.3497 44.3441 38.4741C43.6416 40.5064 42.2615 44.2096 42.2615 44.2096L42.3803 24.8194C42.3803 24.3648 42.1381 23.9253 41.5837 23.6246C40.6444 23.1145 38.1356 22.0715 35.9047 22.0715C34.8418 22.0715 34.3114 22.5659 34.3114 23.5513L34.1168 53.8874C34.1168 56.1923 34.1769 58.8813 34.4048 60.0574C34.6319 61.2349 34.9997 62.1929 35.4553 62.7628C35.9102 63.3316 36.4364 63.7656 37.304 63.9447C38.1115 64.1109 42.5331 64.6787 42.763 62.989C43.0383 60.9639 43.0489 58.7736 45.3707 50.6047C48.9852 37.8867 53.698 31.6815 55.9134 29.4777C56.3008 29.0925 56.7431 29.0696 56.7218 29.7C56.6272 32.4883 56.2946 39.4556 56.0707 45.3748C55.4706 61.2152 58.3522 64.1513 62.4703 64.1513C65.6208 64.1513 70.0619 61.0209 74.8226 53.0968C77.7906 48.1586 80.6724 43.3166 82.7428 39.8268C84.1857 41.1625 85.8049 42.6 87.423 44.1358C91.1832 47.7046 92.4178 51.0958 91.5987 54.3129C90.9722 56.7723 88.6128 59.3069 84.4136 56.8434C83.1896 56.1247 82.6672 55.5694 81.4366 54.7591C80.7754 54.3238 79.7659 54.1937 79.1607 54.6497C77.5885 55.8351 76.6893 57.3429 76.1759 59.2096C75.6765 61.0259 77.4955 61.9861 79.3812 62.8259C81.0049 63.5487 84.4947 64.2037 86.7203 64.2783C95.3919 64.5683 102.339 60.0914 107.174 48.5431C108.04 58.5165 111.724 64.1602 118.125 64.1602C122.404 64.1602 126.694 58.6289 128.571 53.1874C129.109 55.4055 129.907 57.3344 130.936 58.9655C135.868 66.7799 145.436 65.098 150.242 58.4623C151.728 56.4119 151.954 55.6751 151.954 55.6751C152.655 61.9408 157.701 64.13 160.59 64.13C163.826 64.13 167.167 62.6004 169.508 57.329C169.783 57.9011 170.082 58.4474 170.409 58.9653C175.341 66.7798 184.909 65.0978 189.715 58.4621C189.942 58.1509 190.139 57.8685 190.31 57.6151L190.452 61.7307C190.452 61.7307 187.71 64.2459 186.027 65.7888C178.619 72.5848 172.987 77.7408 172.573 83.7451C172.041 91.4011 178.25 94.2465 182.947 94.6193C187.936 95.0152 192.208 92.2595 194.834 88.4028C197.143 85.0083 198.655 77.7022 198.544 70.4863C198.5 67.5967 198.427 63.9227 198.37 59.9844C200.974 56.961 203.907 53.1397 206.608 48.6668C209.551 43.7922 212.706 37.2461 214.321 32.1516C214.321 32.1516 217.062 32.1751 219.986 31.9836C220.922 31.9226 221.191 32.1135 221.018 32.7994C220.809 33.628 217.322 47.0756 220.504 56.0338C222.682 62.1663 227.592 64.1394 230.503 64.1394C233.91 64.1394 237.17 61.5661 238.917 57.7449C239.127 58.1709 239.347 58.5831 239.588 58.9636C244.52 66.7781 254.054 65.0861 258.894 58.4604C259.986 56.9656 260.606 55.6732 260.606 55.6732C261.645 62.1579 266.688 64.1612 269.576 64.1612C272.585 64.1612 275.44 62.9277 277.757 57.4459C277.854 59.8595 278.006 61.8331 278.247 62.4554C278.394 62.8359 279.249 63.3136 279.871 63.5443C282.623 64.565 285.431 64.0823 286.469 63.8724C287.189 63.7267 287.75 63.1495 287.826 61.659C288.028 57.7454 287.904 51.17 289.091 46.2833C291.082 38.082 292.94 34.9007 293.821 33.3257C294.314 32.4433 294.871 32.2977 294.891 33.2316C294.933 35.1213 295.027 40.6704 295.798 48.1259C296.365 53.6092 297.122 56.8501 297.703 57.8759C299.363 60.8091 301.414 60.948 303.083 60.948C304.146 60.948 306.367 60.6545 306.168 58.7879C306.071 57.878 306.241 52.255 308.204 44.1752C309.486 38.8989 311.624 34.1313 312.395 32.3884C312.679 31.7456 312.812 32.2523 312.807 32.351C312.645 35.9847 312.28 47.8702 313.761 54.3705C315.767 63.1765 321.572 64.1619 323.595 64.1619C327.913 64.1619 331.445 60.8769 332.635 52.2334C332.922 50.1533 332.497 48.5471 331.226 48.5471" fill="#262626"/>
</svg>
